<?xml version="1.0" encoding="UTF-8"?>
<svg version="1.1" xmlns="http://www.w3.org/2000/svg" width="512" height="512">
<path d="M0 0 C7.769479 6.35216111 12.19608738 13.30539294 13.48046875 23.23828125 C14.7015332 23.21733398 15.92259766 23.19638672 17.18066406 23.17480469 C21.71293399 23.10237966 26.24515282 23.05647237 30.77783203 23.01855469 C32.73918256 22.99844493 34.70047319 22.97115307 36.66162109 22.93652344 C39.4815957 22.88797704 42.3007774 22.86530639 45.12109375 22.84765625 C46.43536346 22.81668854 46.43536346 22.81668854 47.77618408 22.78509521 C51.38599314 22.78376609 53.82564528 22.89357182 57.04980469 24.59082031 C59.37361863 28.89106577 58.89648363 33.19300539 58.73046875 37.98828125 C58.71242188 38.97183594 58.694375 39.95539062 58.67578125 40.96875 C58.62871001 43.39291908 58.56297617 45.81510184 58.48046875 48.23828125 C59.43767319 48.22717819 60.39487762 48.21607513 61.38108826 48.20463562 C70.4286071 48.10300993 79.47600922 48.02819662 88.5239706 47.97922039 C93.17499633 47.95319398 97.82555905 47.91792421 102.47631836 47.86108398 C106.96971714 47.80651445 111.4626723 47.77680846 115.95637703 47.76389503 C117.66552775 47.75469968 119.37465585 47.73674341 121.08361626 47.70963097 C138.07482737 47.45093691 138.07482737 47.45093691 145.48046875 53.23828125 C147.02734375 54.29015625 147.02734375 54.29015625 148.60546875 55.36328125 C156.79407623 62.66478959 161.75727165 74.13018125 162.85216618 84.89159024 C162.99385712 89.07053965 163.01468842 93.2327585 162.98840332 97.41322327 C162.99302013 99.02441817 162.99937827 100.63560885 163.0073123 102.24679083 C163.02392148 106.64517192 163.01579784 111.04320328 163.00336742 115.44158518 C162.99428468 120.19625373 163.00830255 124.95086384 163.01928711 129.70552063 C163.03704218 139.00813888 163.0332459 148.31062779 163.02163655 157.61325104 C163.01259118 165.17533382 163.011383 172.73738044 163.01573181 180.29946709 C163.01634474 181.37705614 163.01695768 182.45464519 163.01758918 183.56488846 C163.01886812 185.75419702 163.02016498 187.94350556 163.02147955 190.1328141 C163.03287638 210.64535009 163.01978542 231.15781449 162.99827808 251.67033874 C162.98040538 269.26081179 162.98351439 286.85117925 163.00195312 304.44165039 C163.02337128 324.88395104 163.0317805 345.32618901 163.01950407 365.76849931 C163.01822991 367.94930326 163.01697243 370.13010721 163.01573181 372.31091118 C163.01480616 373.92028416 163.01480616 373.92028416 163.01386181 375.56216972 C163.01041194 383.11333644 163.01622937 390.66446331 163.02565002 398.21562386 C163.03688175 407.42051424 163.03380512 416.62526823 163.01252705 425.83014304 C163.00203288 430.52420816 162.99786698 435.21804606 163.01112366 439.91210938 C163.02308708 444.21336453 163.01642027 448.51418293 162.99521345 452.81539875 C162.9907641 454.3670381 162.99297597 455.91871473 163.0027166 457.47032989 C163.08877943 472.32490523 159.93593944 482.35287137 149.63671875 493.17578125 C139.39087441 502.91773161 127.00982938 505.54293811 113.36824036 505.50570679 C112.14974402 505.5102379 110.93124768 505.51476901 109.67582721 505.51943743 C106.30566851 505.52988765 102.93572367 505.53141071 99.56556404 505.52904868 C95.92600795 505.52863971 92.28648343 505.53968739 88.64694214 505.54916382 C81.5204147 505.56575812 74.39392035 505.57127268 67.26737521 505.57238857 C61.47196879 505.57333991 55.67657325 505.57745445 49.88117027 505.58378983 C33.43738875 505.60139887 16.9936333 505.61062936 0.54984228 505.60912888 C-0.3361589 505.60904897 -1.22216007 505.60896905 -2.13500977 505.60888672 C-3.46564114 505.60876408 -3.46564114 505.60876408 -4.82315395 505.60863896 C-19.1929688 505.60782642 -33.56267874 505.62695693 -47.93246325 505.65516345 C-62.69975233 505.68392064 -77.46699029 505.69770215 -92.23430806 505.6959759 C-100.51996594 505.69531292 -108.80551387 505.70076463 -117.09114647 505.722332 C-124.14710465 505.74058127 -131.20290306 505.74486059 -138.25887468 505.73131315 C-141.85537005 505.72480196 -145.45155925 505.72459863 -149.04802513 505.74201965 C-152.95628509 505.76075533 -156.86410266 505.74814735 -160.77238464 505.73275757 C-161.89604925 505.74304469 -163.01971385 505.75333182 -164.1774289 505.76393068 C-177.74754167 505.64630645 -189.98380831 500.75130686 -199.83203125 491.36328125 C-210.2663242 480.27684499 -211.96995871 469.28215892 -211.91394043 454.48225403 C-211.91883393 452.87991255 -211.92502586 451.2775746 -211.93239832 449.6752426 C-211.94876312 445.28733975 -211.94648696 440.89961697 -211.94102335 436.51169431 C-211.93834884 431.77327685 -211.95289297 427.03490692 -211.96511841 422.29650879 C-211.98615778 413.01856899 -211.99071408 403.7406917 -211.98893052 394.46273086 C-211.98762198 386.9187211 -211.99143175 379.37473081 -211.99885559 371.83072472 C-212.00095484 369.65616646 -212.00305244 367.48160819 -212.00514841 365.30704993 C-212.00619194 364.22463665 -212.00723547 363.14222337 -212.00831062 362.02700969 C-212.02720745 341.56162598 -212.02616468 321.09627813 -212.01934129 300.63088932 C-212.013768 281.92350223 -212.03458316 263.21625218 -212.06770176 244.5088971 C-212.10146628 225.28702184 -212.11660353 206.06521218 -212.11198473 186.84330672 C-212.10974261 176.05703004 -212.11494536 165.27087997 -212.13987732 154.48462868 C-212.16092626 145.30023415 -212.16444692 136.11603564 -212.14557773 126.93163297 C-212.13644152 122.24931365 -212.1352117 117.56735943 -212.15593338 112.88506889 C-212.17472662 108.59086857 -212.17004723 104.29733025 -212.14738756 100.00315448 C-212.14322272 98.45742318 -212.14732993 96.91164028 -212.1609835 95.36596368 C-212.2772217 81.2340772 -209.59294343 68.74495847 -199.51953125 58.23828125 C-191.42340719 50.06872296 -183.45174798 47.33778526 -172.0138855 47.19430542 C-167.78428769 47.21817666 -163.5569998 47.28203329 -159.328125 47.359375 C-157.77157851 47.38371994 -156.21502407 47.40756119 -154.65846252 47.43092346 C-150.58961835 47.49332978 -146.52091751 47.56251605 -142.45220947 47.63317871 C-138.28916879 47.70425824 -134.12602762 47.76883692 -129.96289062 47.83398438 C-121.81499279 47.96243537 -113.66723497 48.09805865 -105.51953125 48.23828125 C-105.5352417 47.62307617 -105.55095215 47.00787109 -105.56713867 46.37402344 C-105.62961051 43.57887004 -105.66855993 40.7838637 -105.70703125 37.98828125 C-105.73216797 37.02019531 -105.75730469 36.05210938 -105.78320312 35.0546875 C-105.79287109 34.12011719 -105.80253906 33.18554688 -105.8125 32.22265625 C-105.82821045 31.36381836 -105.8439209 30.50498047 -105.86010742 29.62011719 C-105.43704931 26.66143982 -104.64327792 25.329045 -102.51953125 23.23828125 C-100.56428528 22.75726318 -100.56428528 22.75726318 -98.32348633 22.78417969 C-97.48284134 22.78448181 -96.64219635 22.78478394 -95.77607727 22.78509521 C-94.8728624 22.80574036 -93.96964752 22.8263855 -93.0390625 22.84765625 C-91.64707893 22.85614594 -91.64707893 22.85614594 -90.22697449 22.86480713 C-87.26146979 22.88720749 -84.29717105 22.93741052 -81.33203125 22.98828125 C-79.32228307 23.00834152 -77.31251596 23.02659312 -75.30273438 23.04296875 C-70.37453496 23.08708429 -65.4472376 23.15613701 -60.51953125 23.23828125 C-60.37169189 22.12984863 -60.22385254 21.02141602 -60.0715332 19.87939453 C-58.75256622 11.1792293 -53.79255345 4.76643447 -46.83203125 -0.38671875 C-32.59177362 -9.84587686 -14.14790125 -9.89256351 0 0 Z " fill="#E3ECFA" transform="translate(280.51953125,6.76171875)"/>
<path d="M0 0 C0.00203479 1.25574682 0.00203479 1.25574682 0.00411069 2.53686225 C0.08468325 52.1052818 0.1756058 101.67367308 0.28005161 151.24204838 C0.29257115 157.18789537 0.30500382 163.13374255 0.31738281 169.07958984 C0.31984881 170.26334867 0.3223148 171.4471075 0.32485552 172.66673781 C0.36462725 191.85802947 0.39735501 211.04932705 0.42749982 230.24063598 C0.45856522 249.91869943 0.49715339 269.59673765 0.54279006 289.27477276 C0.57073288 301.42650072 0.59274068 313.57821012 0.60726251 325.72996165 C0.6177687 334.05207354 0.63555263 342.37414961 0.65916704 350.69623457 C0.67259243 355.50447523 0.68270623 360.31266548 0.68421364 365.1209259 C0.68566213 369.51645472 0.69617764 373.91186188 0.71413441 378.30735339 C0.71901382 379.90360306 0.72046632 381.49986734 0.71827881 383.09612297 C0.71580553 385.25403702 0.72543419 387.41155668 0.73828697 389.56942558 C0.74170446 391.37271743 0.74170446 391.37271743 0.74519098 393.21243942 C0.71302506 396.13956053 0.71302506 396.13956053 3 398 C6.09552265 398.20604802 9.10263936 398.28504051 12.19998169 398.2784729 C13.1654089 398.2842653 14.1308361 398.2900577 15.12551868 398.29602563 C18.3807501 398.31311561 21.63584053 398.31590985 24.89111328 398.31884766 C27.21650545 398.32813963 29.54189425 398.33830719 31.86727905 398.34928894 C38.19753011 398.37668543 44.5277588 398.39176685 50.85805368 398.40471697 C56.79813871 398.41872747 62.73818205 398.44186845 68.67823754 398.46498732 C80.44579182 398.51048822 92.21335637 398.54708935 103.98095703 398.578125 C115.41391808 398.60829706 126.846854 398.64264112 138.27978516 398.68261719 C138.98419067 398.68507874 139.68859618 398.68754028 140.41434731 398.69007643 C143.9480471 398.70245077 147.48174659 398.71490735 151.01544595 398.72740483 C180.34359727 398.83102198 209.67177742 398.91857501 239 399 C239 378.54 239 358.08 239 337 C260.12 337 281.24 337 303 337 C303 226.12 303 115.24 303 1 C311.95148561 1 314.25243999 1.40346481 321 6 C322.03125 6.70125 323.0625 7.4025 324.125 8.125 C332.31360748 15.42650834 337.2768029 26.8919 338.37169743 37.65330899 C338.51338837 41.8322584 338.53421967 45.99447725 338.50793457 50.17494202 C338.51255138 51.78613692 338.51890952 53.3973276 338.52684355 55.00850958 C338.54345273 59.40689067 338.53532909 63.80492203 338.52289867 68.20330393 C338.51381593 72.95797248 338.5278338 77.71258259 338.53881836 82.46723938 C338.55657343 91.76985763 338.55277715 101.07234654 338.5411678 110.37496979 C338.53212243 117.93705257 338.53091425 125.49909919 338.53526306 133.06118584 C338.53587599 134.13877489 338.53648893 135.21636394 338.53712043 136.32660721 C338.53839937 138.51591577 338.53969623 140.70522431 338.5410108 142.89453285 C338.55240763 163.40706884 338.53931667 183.91953324 338.51780933 204.43205749 C338.49993663 222.02253054 338.50304564 239.612898 338.52148438 257.20336914 C338.54290253 277.64566979 338.55131175 298.08790776 338.53903532 318.53021806 C338.53776116 320.71102201 338.53650368 322.89182596 338.53526306 325.07262993 C338.53433741 326.68200291 338.53433741 326.68200291 338.53339306 328.32388847 C338.52994319 335.87505519 338.53576062 343.42618206 338.54518127 350.97734261 C338.556413 360.18223299 338.55333637 369.38698698 338.5320583 378.59186179 C338.52156413 383.28592691 338.51739823 387.97976481 338.53065491 392.67382812 C338.54261833 396.97508328 338.53595152 401.27590168 338.5147447 405.5771175 C338.51029535 407.12875685 338.51250722 408.68043348 338.52224785 410.23204864 C338.60831068 425.08662398 335.45547069 435.11459012 325.15625 445.9375 C314.91040566 455.67945036 302.52936063 458.30465686 288.88777161 458.26742554 C287.0600271 458.27422221 287.0600271 458.27422221 285.19535846 458.28115618 C281.82519976 458.2916064 278.45525492 458.29312946 275.08509529 458.29076743 C271.4455392 458.29035846 267.80601468 458.30140614 264.16647339 458.31088257 C257.03994595 458.32747687 249.9134516 458.33299143 242.78690646 458.33410732 C236.99150004 458.33505866 231.1961045 458.3391732 225.40070152 458.34550858 C208.95692 458.36311762 192.51316455 458.37234811 176.06937353 458.37084763 C175.18337235 458.37076772 174.29737118 458.3706878 173.38452148 458.37060547 C172.05389011 458.37048283 172.05389011 458.37048283 170.6963773 458.37035771 C156.32656245 458.36954517 141.95685251 458.38867568 127.587068 458.4168822 C112.81977892 458.44563939 98.05254096 458.4594209 83.28522319 458.45769465 C74.99956531 458.45703167 66.71401738 458.46248338 58.42838478 458.48405075 C51.3724266 458.50230002 44.31662819 458.50657934 37.26065657 458.4930319 C33.6641612 458.48652071 30.067972 458.48631738 26.47150612 458.5037384 C22.56324616 458.52247408 18.65542859 458.5098661 14.74714661 458.49447632 C13.623482 458.50476344 12.4998174 458.51505057 11.34210235 458.52564943 C-2.22801042 458.4080252 -14.46427706 453.51302561 -24.3125 444.125 C-34.74679295 433.03856374 -36.45042746 422.04387767 -36.39440918 407.24397278 C-36.39930268 405.6416313 -36.40549461 404.03929335 -36.41286707 402.43696135 C-36.42923187 398.0490585 -36.42695571 393.66133572 -36.4214921 389.27341306 C-36.41881759 384.5349956 -36.43336172 379.79662567 -36.44558716 375.05822754 C-36.46662653 365.78028774 -36.47118283 356.50241045 -36.46939927 347.22444961 C-36.46809073 339.68043985 -36.4719005 332.13644956 -36.47932434 324.59244347 C-36.48142359 322.41788521 -36.48352119 320.24332694 -36.48561716 318.06876868 C-36.48666069 316.9863554 -36.48770422 315.90394212 -36.48877937 314.78872844 C-36.5076762 294.32334473 -36.50663343 273.85799688 -36.49981004 253.39260807 C-36.49423675 234.68522098 -36.51505191 215.97797093 -36.54817051 197.27061585 C-36.58193503 178.04874059 -36.59707228 158.82693093 -36.59245348 139.60502547 C-36.59021136 128.81874879 -36.59541411 118.03259872 -36.62034607 107.24634743 C-36.64139501 98.0619529 -36.64491567 88.87775439 -36.62604648 79.69335172 C-36.61691027 75.0110324 -36.61568045 70.32907818 -36.63640213 65.64678764 C-36.65519537 61.35258732 -36.65051598 57.059049 -36.62785631 52.76487323 C-36.62369147 51.21914193 -36.62779868 49.67335903 -36.64145225 48.12768243 C-36.75769045 33.99579595 -34.07341218 21.50667722 -24 11 C-17.31618862 4.25556448 -9.64049429 -0.21423321 0 0 Z " fill="#FE8856" transform="translate(105,54)"/>
<path d="M0 0 C7.769479 6.35216111 12.19608738 13.30539294 13.48046875 23.23828125 C14.7015332 23.21733398 15.92259766 23.19638672 17.18066406 23.17480469 C21.71293399 23.10237966 26.24515282 23.05647237 30.77783203 23.01855469 C32.73918256 22.99844493 34.70047319 22.97115307 36.66162109 22.93652344 C39.4815957 22.88797704 42.3007774 22.86530639 45.12109375 22.84765625 C46.43536346 22.81668854 46.43536346 22.81668854 47.77618408 22.78509521 C48.59673279 22.78479309 49.41728149 22.78449097 50.26269531 22.78417969 C50.98217346 22.77529724 51.70165161 22.76641479 52.44293213 22.75726318 C55.44492112 23.46596747 56.62364534 24.81728331 58.48046875 27.23828125 C58.98167419 29.73570251 58.98167419 29.73570251 58.98217773 32.57006836 C58.99155869 33.63474838 59.00093964 34.69942841 59.01060486 35.79637146 C58.99375389 37.51365196 58.99375389 37.51365196 58.9765625 39.265625 C58.97801773 40.44669327 58.97947296 41.62776154 58.98097229 42.84461975 C58.97931251 45.3419949 58.96774255 47.83938019 58.94702148 50.33666992 C58.91810458 54.15783207 58.92640468 57.97760398 58.93945312 61.79882812 C58.93321462 64.22526716 58.92482281 66.65170181 58.9140625 69.078125 C58.91699814 70.22095444 58.91993378 71.36378387 58.92295837 72.54124451 C58.9102742 73.60907669 58.89759003 74.67690887 58.88452148 75.77709961 C58.8791185 76.71323593 58.87371552 77.64937225 58.8681488 78.61387634 C58.39900817 81.78972965 57.361925 83.65344426 55.48046875 86.23828125 C51.94523511 88.59510368 50.48218755 88.49136117 46.29345703 88.49897766 C44.99788879 88.50606247 43.70232056 88.51314728 42.36749268 88.52044678 C40.92858852 88.51815288 39.48968469 88.51564317 38.05078125 88.51293945 C36.53798165 88.51728581 35.02518425 88.5224687 33.51239014 88.52842712 C29.40090249 88.54183555 25.28950666 88.54239383 21.1780014 88.53986382 C17.7483731 88.53879552 14.31876348 88.54367378 10.88913918 88.54846925 C2.80042758 88.55957046 -5.28823759 88.55999816 -13.37695312 88.55395508 C-21.72887312 88.54791146 -30.08062482 88.5602347 -38.4325161 88.58152515 C-45.59775557 88.59912075 -52.76294138 88.60514581 -59.92820168 88.6018874 C-64.2101359 88.60007139 -68.49195003 88.60274242 -72.77386475 88.61660194 C-76.79908764 88.62914285 -80.82404738 88.62727192 -84.84926605 88.61419106 C-86.32833697 88.61181766 -87.8074262 88.61458716 -89.28647614 88.62281418 C-91.30180001 88.63321777 -93.31719834 88.62341417 -95.33251953 88.61250305 C-96.46150665 88.61267079 -97.59049377 88.61283854 -98.75369263 88.61301136 C-101.51953125 88.23828125 -101.51953125 88.23828125 -103.34371948 86.90239239 C-105.6240925 83.67501004 -105.65346484 80.72989214 -105.68066406 76.91235352 C-105.69027161 75.82434952 -105.69987915 74.73634552 -105.70977783 73.6153717 C-105.71615265 71.85283302 -105.71615265 71.85283302 -105.72265625 70.0546875 C-105.72835632 68.84763657 -105.7340564 67.64058563 -105.7399292 66.3969574 C-105.7493806 63.84236529 -105.75591373 61.28776098 -105.75976562 58.7331543 C-105.76948368 54.81993461 -105.80051175 50.90723728 -105.83203125 46.99414062 C-105.83856 44.51432604 -105.84381097 42.0345077 -105.84765625 39.5546875 C-105.86000305 38.38168594 -105.87234985 37.20868439 -105.8850708 36.00013733 C-105.88056915 34.36340309 -105.88056915 34.36340309 -105.87597656 32.69360352 C-105.87962219 31.73446548 -105.88326782 30.77532745 -105.88702393 29.78712463 C-105.44747861 26.73854097 -104.72558279 25.37770493 -102.51953125 23.23828125 C-100.56428528 22.75726318 -100.56428528 22.75726318 -98.32348633 22.78417969 C-97.48284134 22.78448181 -96.64219635 22.78478394 -95.77607727 22.78509521 C-94.8728624 22.80574036 -93.96964752 22.8263855 -93.0390625 22.84765625 C-91.64707893 22.85614594 -91.64707893 22.85614594 -90.22697449 22.86480713 C-87.26146979 22.88720749 -84.29717105 22.93741052 -81.33203125 22.98828125 C-79.32228307 23.00834152 -77.31251596 23.02659312 -75.30273438 23.04296875 C-70.37453496 23.08708429 -65.4472376 23.15613701 -60.51953125 23.23828125 C-60.37169189 22.12984863 -60.22385254 21.02141602 -60.0715332 19.87939453 C-58.75256622 11.1792293 -53.79255345 4.76643447 -46.83203125 -0.38671875 C-32.59177362 -9.84587686 -14.14790125 -9.89256351 0 0 Z " fill="#F74933" transform="translate(280.51953125,6.76171875)"/>
<path d="M0 0 C1.27219139 -0.00574036 1.27219139 -0.00574036 2.57008362 -0.01159668 C4.36126901 -0.01431486 6.15249416 -0.00696019 7.94360352 0.00976562 C10.67880269 0.03115146 13.41136748 0.00997595 16.14648438 -0.015625 C17.88932869 -0.01298119 19.63217138 -0.0078551 21.375 0 C22.18972275 -0.00809692 23.0044455 -0.01619385 23.84385681 -0.02453613 C27.55723485 0.03646632 29.89684487 0.35536239 33.27172852 2.01782227 C36.16528822 5.68689446 35.93905091 8.72442445 35.84765625 13.27734375 C35.84769653 14.12547134 35.84773682 14.97359894 35.84777832 15.84742737 C35.84242415 17.63867614 35.82484556 19.4299244 35.79589844 21.22094727 C35.75410147 23.95597529 35.75482574 26.68853505 35.76171875 29.42382812 C35.75122354 31.16668371 35.73828365 32.90952663 35.72265625 34.65234375 C35.72245483 35.4670665 35.72225342 36.28178925 35.7220459 37.12120056 C35.62661541 41.72436282 35.22796182 44.78956411 32.25390625 48.53125 C28.94943732 50.18348447 25.26636731 49.71584463 21.6328125 49.734375 C20.34926125 49.74292511 20.34926125 49.74292511 19.03977966 49.75164795 C17.22827391 49.76110099 15.41675093 49.76763314 13.60522461 49.77148438 C10.83091359 49.7811992 8.05734047 49.81222291 5.28320312 49.84375 C3.52474399 49.85027909 1.76627955 49.85552993 0.0078125 49.859375 C-0.82350693 49.8717218 -1.65482635 49.8840686 -2.51133728 49.89678955 C-8.31418366 49.87429336 -8.31418366 49.87429336 -10.426651 48.19647217 C-13.52591622 44.28499882 -12.94196494 39.58442914 -12.984375 34.84765625 C-12.99244675 33.99574203 -13.00051849 33.14382782 -13.00883484 32.26609802 C-13.0226578 30.46477281 -13.03338795 28.6634216 -13.04125977 26.86206055 C-13.05850823 24.10740808 -13.10241303 21.35394515 -13.14648438 18.59960938 C-13.15660867 16.84896715 -13.1651256 15.09831474 -13.171875 13.34765625 C-13.18938309 12.52463516 -13.20689117 11.70161407 -13.22492981 10.85365295 C-13.21142294 7.29488397 -13.09274535 5.12099233 -11.26611328 2.01342773 C-7.60787945 -0.1382035 -4.12569551 -0.0409006 0 0 Z " fill="#F86B59" transform="translate(162.74609375,348.46875)"/>
<path d="M0 0 C1.27219139 -0.00574036 1.27219139 -0.00574036 2.57008362 -0.01159668 C4.36126901 -0.01431486 6.15249416 -0.00696019 7.94360352 0.00976562 C10.67880269 0.03115146 13.41136748 0.00997595 16.14648438 -0.015625 C17.88932869 -0.01298119 19.63217138 -0.0078551 21.375 0 C22.18972275 -0.00809692 23.0044455 -0.01619385 23.84385681 -0.02453613 C27.55723485 0.03646632 29.89684487 0.35536239 33.27172852 2.01782227 C36.16528822 5.68689446 35.93905091 8.72442445 35.84765625 13.27734375 C35.84769653 14.12547134 35.84773682 14.97359894 35.84777832 15.84742737 C35.84242415 17.63867614 35.82484556 19.4299244 35.79589844 21.22094727 C35.75410147 23.95597529 35.75482574 26.68853505 35.76171875 29.42382812 C35.75122354 31.16668371 35.73828365 32.90952663 35.72265625 34.65234375 C35.72245483 35.4670665 35.72225342 36.28178925 35.7220459 37.12120056 C35.62661541 41.72436282 35.22796182 44.78956411 32.25390625 48.53125 C28.94943732 50.18348447 25.26636731 49.71584463 21.6328125 49.734375 C20.34926125 49.74292511 20.34926125 49.74292511 19.03977966 49.75164795 C17.22827391 49.76110099 15.41675093 49.76763314 13.60522461 49.77148438 C10.83091359 49.7811992 8.05734047 49.81222291 5.28320312 49.84375 C3.52474399 49.85027909 1.76627955 49.85552993 0.0078125 49.859375 C-0.82350693 49.8717218 -1.65482635 49.8840686 -2.51133728 49.89678955 C-8.31418366 49.87429336 -8.31418366 49.87429336 -10.426651 48.19647217 C-13.52591622 44.28499882 -12.94196494 39.58442914 -12.984375 34.84765625 C-12.99244675 33.99574203 -13.00051849 33.14382782 -13.00883484 32.26609802 C-13.0226578 30.46477281 -13.03338795 28.6634216 -13.04125977 26.86206055 C-13.05850823 24.10740808 -13.10241303 21.35394515 -13.14648438 18.59960938 C-13.15660867 16.84896715 -13.1651256 15.09831474 -13.171875 13.34765625 C-13.18938309 12.52463516 -13.20689117 11.70161407 -13.22492981 10.85365295 C-13.21142294 7.29488397 -13.09274535 5.12099233 -11.26611328 2.01342773 C-7.60787945 -0.1382035 -4.12569551 -0.0409006 0 0 Z " fill="#F86B59" transform="translate(162.74609375,222.46875)"/>
<path d="M0 0 C1.27219139 -0.00574036 1.27219139 -0.00574036 2.57008362 -0.01159668 C4.36126901 -0.01431486 6.15249416 -0.00696019 7.94360352 0.00976562 C10.67880269 0.03115146 13.41136748 0.00997595 16.14648438 -0.015625 C17.88932869 -0.01298119 19.63217138 -0.0078551 21.375 0 C22.18972275 -0.00809692 23.0044455 -0.01619385 23.84385681 -0.02453613 C27.55602789 0.03644649 29.89456074 0.35397909 33.26733398 2.01782227 C36.16157955 5.67964581 35.97436972 8.72595366 35.91796875 13.27734375 C35.92275238 14.12547134 35.92753601 14.97359894 35.9324646 15.84742737 C35.93586233 17.63861956 35.92666856 19.42987387 35.90576172 21.22094727 C35.87902446 23.95665532 35.9054934 26.68824863 35.9375 29.42382812 C35.93419523 31.16667569 35.92778759 32.90952071 35.91796875 34.65234375 C35.9280899 35.4670665 35.93821106 36.28178925 35.94863892 37.12120056 C35.86605452 41.14290236 35.53043885 43.11177822 33.26733398 46.54467773 C29.19812293 49.22726465 26.153298 49.25467244 21.375 49.1953125 C20.10137352 49.20248795 20.10137352 49.20248795 18.80201721 49.20980835 C17.01260518 49.21320142 15.22313067 49.2040404 13.43383789 49.18310547 C10.69602419 49.15629522 7.96229722 49.18288726 5.22460938 49.21484375 C3.48306388 49.21154019 1.74152093 49.20513507 0 49.1953125 C-0.81674698 49.20543365 -1.63349396 49.21555481 -2.47499084 49.22598267 C-6.33045999 49.14648531 -8.16856131 48.98772222 -11.25952148 46.54467773 C-13.26624474 42.47685295 -13.32187659 39.13329495 -13.27734375 34.65234375 C-13.28117065 33.80325943 -13.28499756 32.95417511 -13.28894043 32.07936096 C-13.29165487 30.28995575 -13.28432641 28.50051053 -13.26757812 26.71118164 C-13.24613388 23.97387314 -13.26740785 21.23918109 -13.29296875 18.50195312 C-13.29032591 16.76041088 -13.28520183 15.01887027 -13.27734375 13.27734375 C-13.28544067 12.46059677 -13.2935376 11.64384979 -13.30187988 10.80235291 C-13.24584231 7.40520926 -13.00399253 4.96729335 -11.25952148 2.01782227 C-7.6064698 -0.14278305 -4.12480027 -0.04089173 0 0 Z " fill="#F86B59" transform="translate(162.74609375,285.46875)"/>
<path d="M0 0 C1.15101196 -0.00983414 2.30202393 -0.01966827 3.48791504 -0.02980042 C4.74672989 -0.02013245 6.00554474 -0.01046448 7.30250549 -0.00050354 C8.6447252 -0.00428755 9.98694101 -0.00978827 11.32914734 -0.01687622 C14.97185804 -0.03083912 18.61409684 -0.01965503 22.25678134 -0.00316501 C26.07012727 0.01068772 29.88344585 0.00422506 33.69680786 0.0007019 C40.10174663 -0.00200038 46.50649803 0.0114757 52.91139221 0.03465271 C60.31299536 0.06125132 67.71428498 0.06301328 75.11591953 0.05126435 C82.23865733 0.04047829 89.36128188 0.04668084 96.4840107 0.06081963 C99.51381677 0.06657342 102.54353981 0.06650151 105.57334709 0.06175423 C109.14310562 0.05697563 112.7125217 0.06712222 116.28221512 0.08870888 C118.21469741 0.09691261 120.1472246 0.09043325 122.07971191 0.08351135 C123.2335437 0.09341599 124.38737549 0.10332062 125.57617188 0.11352539 C126.57665275 0.11595529 127.57713362 0.11838518 128.60793209 0.12088871 C132.12541108 0.60847212 134.82361881 1.97324649 137.35157776 4.50120544 C137.19850038 8.55775593 137.07967281 10.77117195 134.1582737 13.70034885 C130.95542355 15.75538935 129.33651688 16.0016239 125.56944275 16.00241089 C123.83652733 16.01716209 123.83652733 16.01716209 122.06860352 16.0322113 C120.18106102 16.01770935 120.18106102 16.01770935 118.25538635 16.00291443 C116.90977412 16.00669956 115.56416579 16.01220121 114.21856689 16.01928711 C110.57191742 16.03323131 106.92574028 16.02208086 103.27911711 16.0055759 C99.46217202 15.99171442 95.64525403 15.9981865 91.82829285 16.00170898 C85.42093805 16.00440959 79.01377076 15.99094623 72.60646057 15.96775818 C65.1962764 15.94112657 57.78640525 15.93940903 50.37618959 15.95114654 C43.24756955 15.96191935 36.11906285 15.95574268 28.99045181 15.94159126 C25.95620167 15.93582939 22.92203442 15.93591564 19.88778305 15.94065666 C16.31719626 15.94542343 12.74695306 15.93533777 9.17643166 15.91370201 C7.23880277 15.90546985 5.30112892 15.9119901 3.36349487 15.91889954 C1.63903893 15.90404259 1.63903893 15.90404259 -0.12025452 15.8888855 C-1.12128016 15.8864556 -2.12230579 15.88402571 -3.15366554 15.88152218 C-6.04259563 15.44111512 -6.91858797 14.80907688 -8.64842224 12.50120544 C-9.30076599 10.59886169 -9.30076599 10.59886169 -9.58592224 8.56370544 C-9.69807068 7.89468201 -9.81021912 7.22565857 -9.92576599 6.53636169 C-9.18597387 1.10774629 -4.77530888 0.00099929 0 0 Z " fill="#87C5FD" transform="translate(220.64842224121094,316.49879455566406)"/>
<path d="M0 0 C1.14819214 -0.01134979 2.29638428 -0.02269958 3.47937012 -0.03439331 C5.37062874 -0.02999741 5.37062874 -0.02999741 7.3000946 -0.0255127 C8.64054574 -0.0328517 9.98099055 -0.04143744 11.32142639 -0.05117798 C14.96415322 -0.07342503 18.60665404 -0.07632296 22.24943948 -0.07443047 C25.2910867 -0.07431087 28.33268586 -0.0828709 31.37431973 -0.09120798 C38.55224726 -0.11045491 45.7300585 -0.1133218 52.90800476 -0.10656738 C60.30910511 -0.0999309 67.70970652 -0.12277171 75.11070567 -0.15988111 C81.46667519 -0.19059249 87.82248436 -0.20193645 94.17852658 -0.1980443 C97.97384893 -0.19597761 101.7687834 -0.20144238 105.56403542 -0.22593689 C109.13555797 -0.24822474 112.70627122 -0.24631049 116.2777977 -0.22600937 C118.20894951 -0.22098115 120.14011651 -0.24060508 122.07116699 -0.26101685 C131.54526918 -0.16920586 131.54526918 -0.16920586 135.29244995 2.70629883 C137.4785614 5.39440918 137.4785614 5.39440918 137.6660614 9.01940918 C136.4785614 12.39440918 136.4785614 12.39440918 134.26530552 14.08069611 C131.15033204 15.54914143 129.13191155 15.77603965 125.70315552 15.78881836 C124.54932373 15.80016815 123.39549194 15.81151794 122.20669556 15.82321167 C120.94990494 15.82028107 119.69311432 15.81735046 118.39823914 15.81433105 C117.054248 15.82167459 115.71026317 15.83026166 114.36628723 15.83999634 C110.72381291 15.86218624 107.08156495 15.86514449 103.43903232 15.86324883 C100.39709628 15.86312906 97.35520811 15.87169531 94.31328541 15.88002634 C87.13828301 15.8992496 79.96339695 15.90214745 72.78837585 15.89538574 C65.38605848 15.8887384 57.98423858 15.91163916 50.58202213 15.94869947 C44.22434504 15.97937525 37.8668282 15.99075906 31.50907856 15.98686266 C27.71273208 15.98479372 23.91677314 15.99029677 20.12049675 16.01475525 C16.55223626 16.03698668 12.98478688 16.03517601 9.41652298 16.01482773 C7.48261959 16.00978217 5.54870132 16.02946009 3.61489868 16.04983521 C2.46388672 16.0386264 1.31287476 16.0274176 0.12698364 16.01586914 C-0.8731202 16.01658165 -1.87322405 16.01729416 -2.90363407 16.01802826 C-5.5214386 15.39440918 -5.5214386 15.39440918 -7.87837124 13.08213043 C-9.5214386 10.39440918 -9.5214386 10.39440918 -9.4589386 6.76940918 C-7.86472956 1.03025664 -5.82916662 0.02174123 0 0 Z " fill="#87C5FD" transform="translate(220.5214385986328,252.6055908203125)"/>
<path d="M0 0 C0.89847656 -0.00515625 1.79695313 -0.0103125 2.72265625 -0.015625 C3.65464844 -0.00015625 4.58664062 0.0153125 5.546875 0.03125 C6.46339844 0.01578125 7.37992187 0.0003125 8.32421875 -0.015625 C15.67108394 0.0262972 20.90552901 1.66573989 26.5390625 6.42578125 C27.07789063 7.05871094 27.61671875 7.69164062 28.171875 8.34375 C28.72617187 8.96894531 29.28046875 9.59414062 29.8515625 10.23828125 C34.95298179 18.33161402 34.64289475 30.49710463 32.609375 39.61328125 C30.15410998 46.27318762 26.54735497 51.75102579 20.265625 55.19140625 C15.48860872 57.1106476 10.69453004 57.04542465 5.609375 57.03125 C4.67287109 57.05960938 3.73636719 57.08796875 2.77148438 57.1171875 C1.41700195 57.12105469 1.41700195 57.12105469 0.03515625 57.125 C-0.77912842 57.13208984 -1.59341309 57.13917969 -2.43237305 57.14648438 C-4.703125 56.53125 -4.703125 56.53125 -6.96606445 54.65844727 C-9.49834435 50.09963163 -9.27639074 46.03806273 -9.234375 40.90234375 C-9.2382019 39.87569107 -9.24202881 38.84903839 -9.24597168 37.79127502 C-9.24868888 35.62524431 -9.24134121 33.45918068 -9.22460938 31.29321289 C-9.20317595 27.97663375 -9.22442974 24.66221551 -9.25 21.34570312 C-9.24735712 19.23957855 -9.24223297 17.13345532 -9.234375 15.02734375 C-9.24247192 14.03560654 -9.25056885 13.04386932 -9.25891113 12.02207947 C-9.16627765 5.22968471 -9.16627765 5.22968471 -6.96386719 1.90844727 C-4.40643803 0.35051445 -2.97821961 0.01663146 0 0 Z " fill="#FE5201" transform="translate(276.703125,133.46875)"/>
<path d="M0 0 C20.79 0 41.58 0 63 0 C60.98251709 4.03496583 58.63495719 6.65435994 55.49633789 9.77832031 C54.93515762 10.34461151 54.37397736 10.91090271 53.79579163 11.49435425 C51.94321891 13.36080451 50.08333204 15.21975503 48.22265625 17.078125 C46.93210604 18.37256186 45.64178013 19.66722238 44.35166931 20.96209717 C41.64906062 23.67216317 38.94261398 26.37832599 36.23364258 29.08203125 C32.75693313 32.55293311 29.29174905 36.03509487 25.82955265 39.52046585 C23.16940007 42.19532038 20.50238488 44.86324772 17.83331108 47.52919769 C16.55230105 48.81072227 15.27366327 50.0946226 13.99742317 51.38089752 C12.21635514 53.17424992 10.42607633 54.95786601 8.63305664 56.73925781 C8.10464172 57.27531647 7.57622681 57.81137512 7.03179932 58.36367798 C3.34258603 62 3.34258603 62 0 62 C0 41.54 0 21.08 0 0 Z " fill="#E76E54" transform="translate(344,391)"/>
<path d="M0 0 C5.99389922 3.44588538 11.26164008 9.24916624 13.375 15.90625 C14.9930709 25.49909891 15.38694511 36.15654948 9.8125 44.5 C9.43867188 45.06976563 9.06484375 45.63953125 8.6796875 46.2265625 C5.82277435 50.06731329 2.37950923 53.03557856 -2.1875 54.5 C-8.65298485 55.27342494 -14.76155407 55.4461425 -20.1875 51.5 C-26.5433959 46.39323971 -30.08509347 41.65566776 -31.1875 33.5 C-32.53003271 16.47192685 -32.53003271 16.47192685 -27.1875 9.5 C-26.65511719 8.79230469 -26.12273437 8.08460938 -25.57421875 7.35546875 C-18.83376838 -0.93932051 -10.29409943 -4.49742208 0 0 Z " fill="#FE5304" transform="translate(352.1875,135.5)"/>
<path d="M0 0 C6.64010576 2.89675889 9.78046329 7.68393483 12.51171875 14.1953125 C14.13962395 18.70255213 14.32217115 22.86972279 14.25 27.625 C14.26160156 28.39714844 14.27320313 29.16929687 14.28515625 29.96484375 C14.24458258 37.90375925 11.03005514 42.92200254 5.75 48.6640625 C1.2715315 53.04922958 -2.29991762 54.72349367 -8.625 55 C-14.74681223 54.74038826 -18.4655346 53.15317825 -22.77734375 48.8515625 C-30.0880268 40.66502745 -31.49735852 33.95811063 -31.40625 23.08203125 C-30.79907886 15.34903215 -27.74975899 8.8747697 -22.125 3.5 C-14.70079772 -1.86192387 -8.64045176 -2.88015059 0 0 Z " fill="#FE5304" transform="translate(228.125,135.5)"/>
<path d="M0 0 C0.82355988 -0.00478363 1.64711975 -0.00956726 2.49563599 -0.01449585 C4.23555412 -0.01789352 5.9755362 -0.00870011 7.71533203 0.01220703 C10.3676747 0.0389101 13.01575986 0.01249431 15.66796875 -0.01953125 C17.36198845 -0.01622579 19.05600552 -0.00981672 20.75 0 C21.53768768 -0.01012115 22.32537537 -0.02024231 23.13693237 -0.03067017 C27.16783548 0.05432873 29.80182897 0.47783056 33.04345703 2.97900391 C35.5078125 5.6640625 35.5078125 5.6640625 35.6953125 9.2890625 C34.5078125 12.6640625 34.5078125 12.6640625 32.6328125 14.6015625 C29.40613315 15.69863348 27.19327637 15.77279069 23.8125 15.73046875 C22.32339111 15.71608765 22.32339111 15.71608765 20.80419922 15.70141602 C20.0463916 15.68908936 19.28858398 15.6767627 18.5078125 15.6640625 C18.52875977 16.72842529 18.54970703 17.79278809 18.57128906 18.8894043 C18.64385212 22.84955316 18.68967101 26.8096436 18.72753906 30.77026367 C18.74761755 32.48227836 18.77488642 34.19422478 18.80957031 35.90600586 C18.85825651 38.37110258 18.88081823 40.8352904 18.8984375 43.30078125 C18.91908264 44.06243088 18.93972778 44.82408051 18.96099854 45.60881042 C18.96255335 49.31603034 18.63087543 51.46459937 16.66699219 54.64770508 C14.5078125 56.6640625 14.5078125 56.6640625 11.5703125 57.2890625 C7.41427345 56.44089127 6.11351113 54.98774928 3.5078125 51.6640625 C3.06923983 48.67214807 2.91879474 46.27391365 3.01953125 43.30078125 C3.02660599 42.50879837 3.03368073 41.71681549 3.04096985 40.90083313 C3.06885006 38.38342861 3.1315705 35.86828894 3.1953125 33.3515625 C3.22040389 31.6400062 3.24321559 29.92841485 3.26367188 28.21679688 C3.31865503 24.03168596 3.40487832 19.84825754 3.5078125 15.6640625 C2.68796875 15.71046875 1.868125 15.756875 1.0234375 15.8046875 C-0.05421875 15.84078125 -1.131875 15.876875 -2.2421875 15.9140625 C-3.84320313 15.98367187 -3.84320313 15.98367187 -5.4765625 16.0546875 C-8.4921875 15.6640625 -8.4921875 15.6640625 -10.8515625 13.83203125 C-12.4921875 11.6640625 -12.4921875 11.6640625 -12.9921875 8.7265625 C-11.72231531 0.94859534 -7.07580564 -0.09045352 0 0 Z " fill="#FE5201" transform="translate(158.4921875,133.3359375)"/>
<path d="M0 0 C0.69480972 -0.00540298 1.38961945 -0.01080597 2.10548401 -0.01637268 C4.39766306 -0.02885921 6.68858562 -0.01236943 8.98071289 0.00561523 C10.57727626 0.00546022 12.17384002 0.00397093 13.770401 0.00120544 C17.11533255 -0.00017856 20.45983533 0.01237794 23.8046875 0.03515625 C28.08653135 0.06351822 32.36766161 0.06081 36.64955807 0.04806614 C39.9464779 0.04110108 43.24323364 0.048908 46.54013252 0.06132317 C48.11853976 0.06583128 49.69696466 0.06618006 51.27537346 0.06225777 C53.48472881 0.05933793 55.6931115 0.07588861 57.90234375 0.09765625 C59.15824814 0.10305923 60.41415253 0.10846222 61.70811462 0.11402893 C65.29876085 0.53486485 67.20066319 1.25583589 70.01586914 3.50170898 C71.10389449 7.24179611 71.61019478 9.37249027 69.76586914 12.87670898 C66.32248288 16.07413908 62.60343795 15.64892749 58.12939453 15.69458008 C57.43312454 15.70275757 56.73685455 15.71093506 56.01948547 15.71936035 C53.71750746 15.74415537 51.41559072 15.76071206 49.11352539 15.77514648 C48.32692472 15.78047016 47.54032406 15.78579384 46.72988701 15.79127884 C42.56912079 15.8179804 38.40838432 15.8373678 34.24755859 15.85180664 C30.80295371 15.86516572 27.35893845 15.89305757 23.91455078 15.93383789 C19.75483716 15.98308557 15.59565977 16.00791715 11.43566704 16.01503372 C9.85078513 16.02175487 8.2659156 16.03699955 6.68120003 16.06092453 C4.4640751 16.09249684 2.24902836 16.09262681 0.03173828 16.08520508 C-1.85997353 16.09733536 -1.85997353 16.09733536 -3.78990173 16.10971069 C-6.98413086 15.50170898 -6.98413086 15.50170898 -9.39137268 13.15664673 C-11.33827141 9.91139897 -11.61778511 8.22442768 -10.98413086 4.50170898 C-7.7830798 0.18162391 -5.22485516 0.00069174 0 0 Z " fill="#87C5FD" transform="translate(221.984130859375,288.498291015625)"/>
<path d="M0 0 C0.6930574 -0.00846954 1.38611481 -0.01693909 2.10017395 -0.02566528 C4.39273407 -0.04907492 6.68462428 -0.05005633 8.97729492 -0.04882812 C10.57289397 -0.05592909 12.16849045 -0.06362799 13.76408386 -0.07189941 C17.11069835 -0.08535454 20.45707695 -0.08690922 23.80371094 -0.08105469 C28.08459618 -0.0751678 32.36434367 -0.10570196 36.64500904 -0.14617157 C39.94197141 -0.17207588 43.23866119 -0.17492337 46.53571129 -0.17127991 C48.11332742 -0.17296968 49.69095634 -0.18259859 51.26847267 -0.20042419 C53.48052612 -0.22266255 55.69029541 -0.21289009 57.90234375 -0.1953125 C59.15904373 -0.19736694 60.41574371 -0.19942139 61.71052551 -0.20153809 C66.30267948 0.62933743 67.94316154 2.05631033 71.14526367 5.41992188 C71.33276367 9.04492188 71.33276367 9.04492188 70.14526367 12.41992188 C66.1853935 15.55247718 62.99429952 15.80657629 58.03173828 15.83984375 C57.33517624 15.84831329 56.6386142 15.85678284 55.92094421 15.86550903 C53.62964385 15.88881627 51.3390171 15.88990303 49.04760742 15.88867188 C47.45007561 15.89577544 45.85254635 15.90347473 44.25502014 15.91174316 C40.91196592 15.92517213 37.56914783 15.92676311 34.22607422 15.92089844 C29.94281041 15.91499259 25.66067629 15.94563638 21.37763119 15.98601532 C18.08075358 16.01186216 14.78414949 16.01477275 11.48718452 16.01112366 C9.90791539 16.01281663 8.32863386 16.02247631 6.74946404 16.04026794 C4.54200271 16.06240901 2.33684801 16.0527858 0.12939453 16.03515625 C-1.75326866 16.03823792 -1.75326866 16.03823792 -3.67396545 16.04138184 C-6.85473633 15.41992188 -6.85473633 15.41992188 -9.29515076 13.10803223 C-10.85473633 10.41992188 -10.85473633 10.41992188 -10.79223633 6.79492188 C-9.00466776 0.35967503 -6.43660012 0.04320369 0 0 Z " fill="#87C5FD" transform="translate(221.854736328125,351.580078125)"/>
<path d="M0 0 C0.6930574 -0.00846954 1.38611481 -0.01693909 2.10017395 -0.02566528 C4.39273407 -0.04907492 6.68462428 -0.05005633 8.97729492 -0.04882812 C10.57289397 -0.05592909 12.16849045 -0.06362799 13.76408386 -0.07189941 C17.11069835 -0.08535454 20.45707695 -0.08690922 23.80371094 -0.08105469 C28.08459618 -0.0751678 32.36434367 -0.10570196 36.64500904 -0.14617157 C39.94197141 -0.17207588 43.23866119 -0.17492337 46.53571129 -0.17127991 C48.11332742 -0.17296968 49.69095634 -0.18259859 51.26847267 -0.20042419 C53.48052612 -0.22266255 55.69029541 -0.21289009 57.90234375 -0.1953125 C59.15904373 -0.19736694 60.41574371 -0.19942139 61.71052551 -0.20153809 C66.30267948 0.62933743 67.94316154 2.05631033 71.14526367 5.41992188 C71.33276367 9.04492188 71.33276367 9.04492188 70.14526367 12.41992188 C66.1853935 15.55247718 62.99429952 15.80657629 58.03173828 15.83984375 C57.33517624 15.84831329 56.6386142 15.85678284 55.92094421 15.86550903 C53.62964385 15.88881627 51.3390171 15.88990303 49.04760742 15.88867188 C47.45007561 15.89577544 45.85254635 15.90347473 44.25502014 15.91174316 C40.91196592 15.92517213 37.56914783 15.92676311 34.22607422 15.92089844 C29.94281041 15.91499259 25.66067629 15.94563638 21.37763119 15.98601532 C18.08075358 16.01186216 14.78414949 16.01477275 11.48718452 16.01112366 C9.90791539 16.01281663 8.32863386 16.02247631 6.74946404 16.04026794 C4.54200271 16.06240901 2.33684801 16.0527858 0.12939453 16.03515625 C-1.75326866 16.03823792 -1.75326866 16.03823792 -3.67396545 16.04138184 C-6.85473633 15.41992188 -6.85473633 15.41992188 -9.29515076 13.10803223 C-10.85473633 10.41992188 -10.85473633 10.41992188 -10.79223633 6.79492188 C-9.00466776 0.35967503 -6.43660012 0.04320369 0 0 Z " fill="#87C5FD" transform="translate(221.854736328125,225.580078125)"/>
<path d="M0 0 C1.02758423 -0.00810448 1.02758423 -0.00810448 2.07592773 -0.01637268 C4.33564755 -0.02885793 6.59409249 -0.01237039 8.85375977 0.00561523 C10.4279029 0.00546022 12.00204642 0.00397087 13.57618713 0.00120544 C16.87404266 -0.00017851 20.17146327 0.01237692 23.46923828 0.03515625 C27.69055113 0.06351791 31.91114016 0.06081003 36.13250637 0.04806614 C39.38310393 0.04110064 42.63353509 0.0489085 45.8841114 0.06132317 C47.44018986 0.06583087 48.99628622 0.06618041 50.55236626 0.06225777 C52.73059366 0.0593375 54.90783492 0.07589055 57.0859375 0.09765625 C58.94314674 0.10576073 58.94314674 0.10576073 60.83787537 0.11402893 C64.67278186 0.56871148 67.35692684 1.75096981 70.10766602 4.50170898 C69.95661388 8.50459061 69.82003183 10.76095607 66.99282837 13.70082092 C63.42089242 15.93038586 61.26335299 16.00285656 57.07006836 16.00341797 C56.03744621 16.01152245 56.03744621 16.01152245 54.98396301 16.01979065 C52.72006571 16.03224671 50.45744772 16.01581303 48.19360352 15.99780273 C46.61609836 15.99795776 45.03859283 15.99944736 43.46109009 16.00221252 C40.16081838 16.00359498 36.8609821 15.99106184 33.56079102 15.96826172 C29.32922194 15.93983047 25.09837353 15.94262886 20.86675072 15.95535183 C17.61194695 15.96230255 14.35731008 15.95452755 11.10252762 15.9420948 C9.54200505 15.93757764 7.98146459 15.93724582 6.4209404 15.9411602 C4.24241041 15.94406777 2.06487851 15.92759076 -0.11352539 15.90576172 C-1.3530899 15.90035873 -2.59265442 15.89495575 -3.86978149 15.88938904 C-6.89233398 15.50170898 -6.89233398 15.50170898 -8.77523804 14.09535217 C-10.09604175 12.21110057 -10.51107158 10.83921188 -10.82983398 8.56420898 C-10.94198242 7.89518555 -11.05413086 7.22616211 -11.16967773 6.53686523 C-10.33934834 0.44388477 -5.14998038 0.00069161 0 0 Z " fill="#87C5FD" transform="translate(221.892333984375,379.498291015625)"/>
<path d="M0 0 C4.27547531 1.56419828 6.58573142 3.8273871 8.5625 7.9375 C9.55576289 13.55502653 10.03302184 19.27534839 7.203125 24.3984375 C5.5625 26.3125 5.5625 26.3125 2.5625 28.9375 C-0.96181989 28.73611029 -2.4622861 27.91767112 -5.25 25.6875 C-8.35938905 21.60087439 -8.12434666 17.10513229 -7.92578125 12.15234375 C-7.11318621 6.80221802 -5.302972 2.03960462 0 0 Z " fill="#E4E9F4" transform="translate(219.4375,147.0625)"/>
<path d="M0 0 C3.74842187 1.3630625 5.06939418 2.62176505 6.78515625 6.22265625 C8.64271555 11.99555013 7.58133589 17.67602669 5.4375 23.25 C3.625 25.75 3.625 25.75 1.4375 27.25 C-2.06339901 27.33976664 -3.43668632 26.34918843 -6.18359375 24.18359375 C-9.14457829 20.53219902 -9.31225396 17.75777632 -9.1875 13.25 C-9.20683594 12.55132812 -9.22617187 11.85265625 -9.24609375 11.1328125 C-9.20908634 7.21002686 -8.66796591 5.38587851 -6.24609375 2.265625 C-3.5625 0.25 -3.5625 0.25 0 0 Z " fill="#E4E8F4" transform="translate(344.5625,148.75)"/>
<path d="M0 0 C3.3 0 6.6 0 10 0 C14.1908512 4.1908512 14.16157117 7.08291181 14.25 12.875 C14.20920184 17.65421316 13.84320839 20.99844745 11 25 C8 27 8 27 0 27 C0 18.09 0 9.18 0 0 Z " fill="#E4EBF7" transform="translate(282,149)"/>
</svg>
